<?xml version="1.0" encoding="UTF-8"?>
<svg xmlns="http://www.w3.org/2000/svg" viewBox="0 0 650.49 553.55">
  <path d="M297.49.35c-1.33,4.67-4,8-8,10-5-5,1-12,8-10Z" fill="#98dceb" stroke-width="0"/>
  <path d="M297.49.35c6,7-3,16-8,10,4-2,6.67-5.33,8-10Z" fill="#16a5c0" stroke-width="0"/>
  <path d="M217.49,19.35c-2.67,0-5,1.33-7,4l-3-1h-1c-1.33.67-2.33.33-3-1,4-2,6.67-5,8-9,.31-.18.69-.18,1,0l5,6v1Z" fill="#98dceb" stroke-width="0"/>
  <path d="M203.49,21.35c.67,1.33,1.67,1.67,3,1h1l3,1c2-2.67,4.33-4,7-4,1.33-1.33,3-1.67,5-1,.18.31.18.69,0,1-2.67,2.67-3.33,6-2,10,0,.55-.45,1-1,1l-5-2c-.31-.18-.69-.18-1,0l-3,3c-.31.18-.69.18-1,0-1-5-3-6-6-9-.18-.31-.18-.69,0-1Z" fill="#26c0db" stroke-width="0"/>
  <circle cx="410.89" cy="30.05" r="1.9" fill="#f5452d" stroke-width="0"/>
  <path d="M359.49,38.35c0,1.33-.67,2.33-2,3-.31.18-.69.18-1,0-2-.67-3.33-2-4-4-.31-.18-.69-.18-1,0l-4,7c-.31.18-.69.18-1,0v-2l5-10c0-.55.45-1,1-1l7,7Z" fill="#ffac1d" stroke-width="0"/>
  <path d="M424.49,56.35c1.33,1.33,2.33,1.67,3,1,.71-.4,1.11-1.19,1-2-.67-6,1.33-10.33,6-13v-1c0-2.67-1-5-3-7l-2,1,2-2h1c4,6,5,9,12,11,.18.31.18.69,0,1l-3,4-3,8c.15,1.09-.61,2.11-1.7,2.26-.45.06-.91-.03-1.3-.26l-6-2h-1l-3,1c-1.33,0-1.67-.67-1-2Z" fill="#16a5c0" stroke-width="0"/>
  <path d="M273.49,34.35l-2,4c0,6-6,11-10,16-9-8,0-25,12-20ZM264.49,36.35l-4,7c0,.55.45,1,1,1,4.67-1.33,8-4,10-8,.18-.31.18-.69,0-1h-7v1ZM424.49,56.35l-1-2-1-3-6-6c6-2,10.33-5.33,13-10l2-1c2,2,3,4.33,3,7v1c-4.67,2.67-6.67,7-6,13,.11.81-.29,1.6-1,2-.67.67-1.67.33-3-1Z" fill="#69d2e7" stroke-width="0"/>
  <path d="M260.49,43.35l4-7v-1h7c.18.31.18.69,0,1-2,4-5.33,6.67-10,8-.55,0-1-.45-1-1Z" fill="#bee7f4" stroke-width="0"/>
  <path d="M273.49,34.35c16,5,3,30-12,20,4-5,10-10,10-16l2-4Z" fill="#16a5c0" stroke-width="0"/>
  <path d="M307.49,81.35c-.71-.4-1.11-1.19-1-2l-2-41c-.11-.81.29-1.6,1-2,2-1,4,1,3,3v17l1,22c.67,2,0,3-2,3Z" fill="#bee7f4" stroke-width="0"/>
  <path d="M377.49,62.35l-2-2-1-1c-4.67-2.67-8-7-10-13,3.33-2.67,5.67-6,7-10h2c.18.31.18.69,0,1,1,5,0,11,2,15,.2.44.56.8,1,1l6,5v1l-5,3Z" fill="#ea7a09" stroke-width="0"/>
  <path d="M359.49,38.35c2,3,8,0,12-2-1.33,4-3.67,7.33-7,10l-26,27-2,7-2-4,3-12c.23-.65.23-1.35,0-2l-9-14c-.83-.28-1.28-1.17-1-2s1.17-1.28,2-1c4,0,14,1,17-3v2c.31.18.69.18,1,0l4-7c.31-.18.69-.18,1,0,.67,2,2,3.33,4,4,.31.18.69.18,1,0,1.33-.67,2-1.67,2-3ZM330.49,48.35l11,8c.28.55.95.78,1.5.5s.78-.95.5-1.5c0-4-9-7-12-8-1.33,0-1.67.33-1,1Z" fill="#ffc126" stroke-width="0"/>
  <path d="M304.49,87.35l-2,6-18,35-5,12,1,1,4,4,17,18h-5l-6,1-32,2-5,2h-4l-14,1c-2.67.67-3.33,2-2,4,1,3,1,6,3,8l1,2v1l-2,1-7,3-2,1q0-.67,0,0l-3-1v-2c2-6.67,3-13,3-19l10-10c2-1,3-3,5-1l2,4,4,3h1c7-3,18-3,25-2,3,0,6-2,9-1,3,0,6,3,9,2v-1l-19-19c-.88-.73-1.26-1.89-1-3,4-7,8-13,11-21,4.67-10,10.33-20,17-30v-1c-3-1-6,2-7,4-3.33,5.33-6.33,9-9,11l-26,20c-3,1-15,3-17,0l-8-13c-.67-2.67-2.33-5-5-7-5.33-6-12.33-12.33-21-19l-36-33c-.55,0-1,.45-1,1-1.33,2-1.33,3.67,0,5l-15,62c0,2-2,4-4,5l-39,25-15,8c-2.67.67-4.33.33-5-1,20-10,38-23,56-35,.58-.51.94-1.23,1-2l13-67,3-6c6-4,9,0,14,4l51,46h1l66-14c2.67,0,5,.67,7,2l1,4Z" fill="#ea7a09" stroke-width="0"/>
  <path d="M416.49,45.35l6,6,1,3-7-9Z" fill="#118caa" stroke-width="0"/>
  <path d="M364.49,46.35c2,6,5.33,10.33,10,13l1,1,2,2-9,6v12c.15,1.09-.61,2.11-1.7,2.26-.45.06-.91-.03-1.3-.26l-11-7c-.33-.08-.67-.08-1,0-6,0-11,4-17,5l2-7,26-27Z" fill="#fb9312" stroke-width="0"/>
  <path d="M330.49,48.35c-.67-.67-.33-1,1-1,3,1,12,4,12,8,.28.55.05,1.22-.5,1.5s-1.22.05-1.5-.5l-11-8Z" fill="#fefefe" stroke-width="0"/>
  <path d="M206.49,83.35c-4,7-11,4-17,3l-1,1,16,36c.78,1.39.34,3.14-1,4l-28,18c-1.33.67-1.33,1.33,0,2l21,7c.55,0,1,.45,1,1-3,10-6,24-11,31-4,4.67-9.67,7.67-17,9l-1-14c0-5-6-6-12-7l-48-14h-3c-3.33,1.33-4,2.67-2,4l-3,4c-.31.18-.69.18-1,0h-1l2,2c-4-1-10-3-12-7-.67-2.67.33-5.33,3-8,.67,1.33,2.33,1.67,5,1l15-8c0,2,1,3,3,3l6-2,52-26c2-1,3-2,3-5l-1-55c-.67-3.33-2.33-5.67-5-7-1.33-1.33-1.33-3,0-5,0-.55.45-1,1-1l36,33Z" fill="#ffc126" stroke-width="0"/>
  <rect x="366.33" y="75.05" width="48.4" height="3.4" rx="1.5" ry="1.5" transform="translate(178.93 413.84) rotate(-69)" fill="#e63b33" stroke-width="0"/>
  <path d="M169.49,56.35c2.67,1.33,4.33,3.67,5,7l1,55c0,3-1,4-3,5l-52,26-6,2c-2,0-3-1-3-3l39-25c2-1,4-3,4-5l15-62Z" fill="#fefefe" stroke-width="0"/>
  <path d="M105.49,74.35l-5-6c-3-3,6-10,8-11h1l3,3c-.08.33-.08.67,0,1l6,3c.83.28,1.28,1.17,1,2-.28.83-1.17,1.28-2,1h0c-2,0-3,1-4,3-2,4-4,8-8,4ZM101.49,66.35c4,1,6-1,5-6-2.67,1.33-4.67,3.33-6,6,.31.18.69.18,1,0Z" fill="#ff6d36" stroke-width="0"/>
  <path d="M106.49,60.35c1,5-1,7-5,6-.31.18-.69.18-1,0,1.33-2.67,3.33-4.67,6-6Z" fill="#fce8b2" stroke-width="0"/>
  <ellipse cx="140.68" cy="66.91" rx="1.1" ry="7" transform="translate(-14.37 82.01) rotate(-31)" fill="#bee7f4" stroke-width="0"/>
  <rect x="246.57" y="60.98" width="2.1" height="22.8" rx="1" ry="1" transform="translate(-9.64 53.06) rotate(-12)" fill="#ffc126" stroke-width="0"/>
  <path d="M438.49,65.35c.55,0,1,.45,1,1s-.45,1-1,1l-4,5c-.28.55-.95.78-1.5.5-.55-.28-.78-.95-.5-1.5h0c0-2,2-7,6-6Z" fill="#69d2e7" stroke-width="0"/>
  <circle cx="230.09" cy="73.35" r="4.6" fill="#98dceb" stroke-width="0"/>
  <path d="M513.49,157.35l-2,6c-.06.77-.42,1.49-1,2l-39,18-2-1v-1h-20c-1.1,0-2,.9-2,2l-2,12-4,1-8-2,6-18c1-2,3-4,6-3h25c.55,0,1-.45,1-1h0c5-8,17-7,23-15v-1l-5-3-30-15c-5-2-6-3-6-8l2-45c-1.33-8-4.67-12-10-12l7-4c5-2,10,2,10,7l2,55v1l2,1,47,24Z" fill="#118caa" stroke-width="0"/>
  <rect x="412.28" y="88.58" width="24" height="2.3" rx="1.1" ry="1.1" transform="translate(145.86 422.22) rotate(-62)" fill="#ffc126" stroke-width="0"/>
  <path d="M455.49,85.35l-4-1v-1h-4c-2-3-5-2-7,0l-39,28-4,4-2-1,2-3c1-2,0-4,2-4l1-1,3-2v-1h-1l43-30c5.33,0,8.67,4,10,12Z" fill="#26c0db" stroke-width="0"/>
  <path d="M498.49,90.35h-13c-.71.4-1.11,1.19-1,2l-1,4-6-6h-3l-1-2c6-2,10-2,14-9,.28-.55.95-.78,1.5-.5s.78.95.5,1.5c2,6,3,8,9,10Z" fill="#69d2e7" stroke-width="0"/>
  <path d="M447.49,83.35c-10,9.33-20.67,18-32,26-5,4-15,13-18,6l4-4,39-28c2-2,5-3,7,0Z" fill="#fefefe" stroke-width="0"/>
  <path d="M206.49,83.35c8.67,6.67,15.67,13,21,19,2.67,2,4.33,4.33,5,7l-1,12v11c.09,1.09-.27,2.18-1,3l-14,11c-.18.31-.18.69,0,1,2.67,2,5.67,3.33,9,4,1.1,0,2,.9,2,2h0c-1.33,4.67-1.67,9.33-1,14,0,6-1,12.33-3,19v2l3,1-24,8-22,7c-1.1-.55-2.45-.1-3,1-.55,1.1-.1,2.45,1,3l3,7-2,2v1l-3,2c.18.31.18.69,0,1-1.33,0-2.33.67-3,2-.31.18-.69.18-1,0l-3-28c7.33-1.33,13-4.33,17-9,5-7,8-21,11-31,0-.55-.45-1-1-1h0l-21-7c-1.33-.67-1.33-1.33,0-2l28-18c1.34-.86,1.78-2.61,1-4l-16-36,1-1c6,1,13,4,17-3Z" fill="#fb9312" stroke-width="0"/>
  <path d="M455.49,85.35l-2,45c0,5,1,6,6,8l30,15,5,3v1c-6,8-18,7-23,15,0,.55-.45,1-1,1h-25c-3,0-5,1-6,3l-6,18-28-7-4-16c-1.33-2-3-3-5-3h-1c-2-2-4.33-2.67-7-2h1v-1l14-15c.36-.62.36-1.38,0-2l-8-10c-2-1-1-3,1-3h20v-1c9-6,9-19-1-25,11.33-8,22-16.67,32-26h4v1l4,1Z" fill="#16a5c0" stroke-width="0"/>
  <path d="M244.49,160.35q0-.67,0,0c0,.67.33.67,1,0v-1l5-2h1l1,1,1-1h1c.55.28,1.22.05,1.5-.5s.05-1.22-.5-1.5c-2-2.67-1.67-5,1-7v-1c0-3.33.67-6.33,2-9v-3c1-4,3-9-1-13l26-20c2.67-2,5.67-5.67,9-11,1-2,4-5,7-4v1c-6.67,10-12.33,20-17,30-3,8-7,14-11,21-.26,1.11.12,2.27,1,3l19,19v1c-3,1-6-2-9-2-3-1-6,1-9,1-7-1-18-1-25,2h-1l-4-3h1Z" fill="#fb9312" stroke-width="0"/>
  <path d="M304.49,87.35l31,1-3,4c0,10,7,23,10,32-19.33-1.33-38.67,0-58,4l18-35,2-6Z" fill="#bee7f4" stroke-width="0"/>
  <path d="M366.49,96.35c-2.67.67-3.67,2.33-3,5-4.67-.67-7.33,0-8,2-4-2-8-3-12-3l-2,2c.18.31.18.69,0,1-2.67.67-4.33-.33-5-3-.31-.18-.69-.18-1,0l-3-8,3-4h7l24,8Z" fill="#26c0db" stroke-width="0"/>
  <path d="M473.49,88.35l1,2c2,2,5,5,4,7l-5-8v-1Z" fill="#16a5c0" stroke-width="0"/>
  <rect x="98.53" y="82.87" width="2.4" height="38" rx="1" ry="1" transform="translate(-42.55 92.9) rotate(-42)" fill="#ea7a09" stroke-width="0"/>
  <path d="M483.49,96.35l-1,4,1,1-5,1c-.55,0-1-.45-1-1l1-4c1-2-2-5-4-7h3l6,6Z" fill="#26c0db" stroke-width="0"/>
  <path d="M498.49,90.35h2v1l-7,6v1l-1,6c.28.55.05,1.22-.5,1.5s-1.22.05-1.5-.5c-1-2-5-6-7-4l-1-1,1-4,1-4c-.11-.81.29-1.6,1-2h13Z" fill="#16a5c0" stroke-width="0"/>
  <ellipse cx="543.67" cy="94.35" rx="3" ry="5.3" transform="translate(109.77 435.24) rotate(-48)" fill="#f5452d" stroke-width="0"/>
  <ellipse cx="550.9" cy="96.3" rx="4" ry="3.2" transform="translate(87.72 409.72) rotate(-44)" fill="#f5452d" stroke-width="0"/>
  <path d="M332.49,92.35l3,8,1,3,8,21,3,9,5,17-6-17c-1.33-1.33-2-3-2-5,.18-.31.18-.69,0-1-1.33-.67-2-1.67-2-3-3-9-10-22-10-32Z" fill="#19637d" stroke-width="0"/>
  <path d="M366.49,96.35l30,10c2,.67,4-.33,6-3h1v1l-3,2-1,1c-2,0-1,2-2,4l-2,3-32-13c-.67-2.67.33-4.33,3-5Z" fill="#16a5c0" stroke-width="0"/>
  <path d="M343.49,100.35c2.67,6,6.33,11,11,15l1-1c1.33-4,1.33-7.67,0-11,.67-2,3.33-2.67,8-2l32,13,2,1c3,7,13-2,18-6,10,6,10,19,1,25v1h-20c-2,0-3,2-1,3l8,10c.36.62.36,1.38,0,2l-14,15v1h-2l-1,1c-4-1-5,1-8,1l-3,1-21,4h-3l-2-5c.67-.67.33-1-1-1l-1-1,2-1v-1l1-1c5.33-3.33,10.33-7.33,15-12,1-2,2-4,1-6l-22-34h-1v4l-7-12-1-3c.31-.18.69-.18,1,0,.67,2.67,2.33,3.67,5,3,.18-.31.18-.69,0-1l2-2Z" fill="#35d1e4" stroke-width="0"/>
  <path d="M355.49,103.35c1.33,3.33,1.33,7,0,11l-1,1c-4.67-4-8.33-9-11-15,4,0,8,1,12,3Z" fill="#fefefe" stroke-width="0"/>
  <rect x="515.37" y="107.15" width="21.2" height="2.5" rx="1.2" ry="1.2" transform="translate(57.9 371.66) rotate(-41)" fill="#fb9312" stroke-width="0"/>
  <ellipse cx="554.12" cy="103.13" rx="4.6" ry="3.1" transform="translate(187.75 531.45) rotate(-60)" fill="#f5452d" stroke-width="0"/>
  <path d="M336.49,103.35l7,12c3,11,9,22,14,32,.36.62.36,1.38,0,2l-10,13-5,3-1,1c-2,0-3.67,1-5,3,0,.55-.45,1-1,1v-1l17-19-5-17-3-9-8-21Z" fill="#26c0db" stroke-width="0"/>
  <path d="M232.49,109.35l8,13c2,3,14,1,17,0,4,4,2,9,1,13v3c-1.33,2.67-2,5.67-2,9v1c-2.67,2-3,4.33-1,7,.55.28.78.95.5,1.5s-.95.78-1.5.5h-1l-1,1-1-1h-1l-5,2v1h-1l-3-4c-2-2-3,0-5,1l-10,10c-.67-4.67-.33-9.33,1-14,0-1.1-.9-2-2-2h0c-3.33-.67-6.33-2-9-4-.18-.31-.18-.69,0-1l14-11c.73-.82,1.09-1.91,1-3v-11l1-12Z" fill="#ffac1d" stroke-width="0"/>
  <path d="M350.49,163.35c-2.67.67-3.67.33-3-1l10-13c.36-.62.36-1.38,0-2-5-10-11-21-14-32v-4h1l22,34c1,2,0,4-1,6-4.67,4.67-9.67,8.67-15,12Z" fill="#fefefe" stroke-width="0"/>
  <circle cx="621.59" cy="118.85" r="6.5" fill="#98dceb" stroke-width="0"/>
  <circle cx="526.09" cy="119.85" r="3.9" fill="#98dceb" stroke-width="0"/>
  <circle cx="598.49" cy="122.35" r="3.4" fill="#98dceb" stroke-width="0"/>
  <path d="M68.49,132.35c-3,1-4-2-7,1-.55,0-1-.45-1-1h0c0-2.67-1.33-4.33-4-5-.55-.28-.78-.95-.5-1.5s.95-.78,1.5-.5c2.67-.67,4.33-2.33,5-5-.28-.55-.05-1.22.5-1.5s1.22-.05,1.5.5c.67,3.33,2.67,5,6,5,.18.31.18.69,0,1l-2,6v1Z" fill="#f5452d" stroke-width="0"/>
  <path d="M342.49,124.35c0,1.33.67,2.33,2,3,.18.31.18.69,0,1,0,2,.67,3.67,2,5-22,1-42,4-62,12l-4-4-1-1,5-12c19.33-4,38.67-5.33,58-4Z" fill="#3487ad" stroke-width="0"/>
  <path d="M466.49,132.35l-1-3c0-.55.45-1,1-1s1,.45,1,1l10,9q.67,0,0,0l-11-6Z" fill="#bee7f4" stroke-width="0"/>
  <circle cx="506.69" cy="133.75" r="3.8" fill="#ffc126" stroke-width="0"/>
  <path d="M346.49,133.35l6,17-17,19-2,1v1h1v1l-2,4-6,2-9,1h-2c-.31.18-.69.18-1,0l-4-16c0-.55-.45-1-1-1l-8,1q0-.67,0,0l-17-18c20-8,40-11,62-12ZM330.49,151.35c-.92-1.39-3.4-1.12-5.54.6-.16.13-.31.26-.46.4-2.15,1.71-3.17,4.25-2.28,5.66.08.13.17.24.28.34,1.39.96,4.04.1,5.91-1.9.03-.03.06-.07.09-.1,1.73-1.58,2.56-3.65,2-5Z" fill="#98dceb" stroke-width="0"/>
  <path d="M98.49,137.35l2,2c.36.62.36,1.38,0,2-2.67,4.67-6.33,7.67-11,9-5-6,2-15,9-13Z" fill="#69d2e7" stroke-width="0"/>
  <path d="M98.49,137.35c2.67.67,4,2.67,4,6l-1-1-1,1c-1,5-5,7-9,8l-2-1c4.67-1.33,8.33-4.33,11-9,.36-.62.36-1.38,0-2l-2-2Z" fill="#16a5c0" stroke-width="0"/>
  <path d="M102.49,143.35c-1,4-7,11-11,8,4-1,8-3,9-8l1-1,1,1Z" fill="#19637d" stroke-width="0"/>
  <path d="M532.49,194.35l-34,92-14,37c-4,9.33-7.33,19.33-10,30-7,26-9,52-10,80v1h23c2.67.67,4,3,4,7l-3,8v1c13,7,19,21,13,35-2,4.67-5.33,8.67-10,12l-5,2c-5.33,2-10.67,2.33-16,1l-8-3c-4.67-4-8.33-8-11-12-3.33-7.33-3.33-15.33,0-24l2-2,4,4c-4,11-1,23,10,29,3.33,1.33,7,2,11,2,22-2,25-31,5-39v-4h-43l-66-1c-12,0-19,0-29-6l-13-2h-147l-1,1v3l-1,3h-1c-2-4.67-3.33-10-4-16-1-7,3-8,8-8h52l34,1h65c11,1,21,7,32,7h16l-27-34-3-2c-.33-.08-.67-.08-1,0h-104l-24-1h-4l-32,1c-5,0-7-3-6-7-.18-.31-.18-.69,0-1l1-1c1.33,0,1.67-.67,1-2l-13-27h-1c-3,0-11,1-14-1-2-1-3-6,2-6h9v-1l-7-14-7-13-3-6-3-7-1-1h-11c-.31.18-.69.18-1,0l-8-20,3-1,17-3,11-1,81-13,11-2,14-2,46-6,15-2,14-2,3-1,31-4,52-8,16-2,3-1,7-1h1l30-4,14-2c1.1,0,2-.9,2-2l2-5,2-6,5-14,2-4,7-19v-1l-3-3-1-1-16,8-32,14,16,5,1,1-1,4-18-4v-1l-8-2-64-16-32-9-8-1,1-4h1l10,1,42,11,28,7,8,2,4-1,26-12,39-18c.58-.51.94-1.23,1-2l2-6c4-6,9.33-9,16-9,8-1,17-2,23,0,22,5,20,37-2,40l-15,1c-.81-.11-1.6.29-2,1l-1,4ZM519.49,158.35l-2,4c-1.33,5.33-.67,10.33,2,15,5,8,18,7,27,6,8-1,13-6,14-13,.67-6-1.33-11-6-15-2-2-4.33-3-7-3l-20,1c-2.67,0-5.33,1.67-8,5ZM451.49,199.35c3,1,6,1,9-1l51-23v-4c-.31-.18-.69-.18-1,0l-59,27v1ZM452.49,440.35l-87-1c-8,0-17-5-25-6l-9-1h-147l-1,1v2c0,.55.45,1,1,1h10l138,1c5,0,12,0,15,2,7.33,3.33,14,5,20,5l116,1,1-4c-.31-.18-.69-.18-1,0l-25-1-1-1,3-44c2-24,7-46.67,15-68l51-138q.67,0,0,0l-3-1-1,1-51,136c-8.67,22.67-13.67,45.67-15,69l-4,45v1ZM138.49,298.35l3,7v1l11-2c7.33,17.33,15,33,23,47,.67,1.33,1.67,1.33,3,0,4.67.67,8.67.33,12-1l3,1,19-1v-1l-7-41-1-7,5-1,9,49,2,1h1l44-2h2v-1l-2-42-1-11h5l1,8,2,45h16l31-2h4v-1l1-44,1-12,5-1-1,57h3l25-1,21-1v-1l11-47,3-13h1l6-1-2,2-13,59,1,1h1l29-2,2-1,20-62,5-1-20,63,1,1,3-1,24-1h10l8-24c4.67-9.33,8.67-19.33,12-30l14-38,2-4-1-1-359,52v1l2,4ZM448.49,346.35l-25,1h-3c-.18.31-.18.69,0,1l-13,40v1h25l3-1,2-8c4.67,1.33,8.67,3.33,12,6,.67.67,1,.33,1-1,2-13.33,4.67-26.33,8-39l-1-1-9,1ZM384.49,349.35h-1l-1,1c-2,12-4.67,23.67-8,35v3l26,1c.55,0,1-.45,1-1l13-40-30,1ZM356.49,351.35l-26,1h-1l-1,1v34c-.18.31-.18.69,0,1h39c.31.18.69.18,1,0l9-38h-1l-20,1ZM316.49,353.35l-26,1h-17v1l1,20,1,10h2l22-1v3l2,1h20l1-1,1-34h-7ZM222.49,357.35h-2l5,29v1l1-1h3l40-1v-10l-1-20h-1l-45,2ZM196.49,358.35h-17l-1,1,15,28h13l13-1-3-18-2-10-1-1-17,1ZM395.49,432.35c.55,0,1-.45,1-1l-27-34h-1l-3-1c-.55,0-1,.45-1,1l28,34,3,1ZM401.49,427.35l5,6h29l11,1,1-1,2-30v-6h-71l23,30Z" fill="#0f1535" stroke-width="0"/>
  <ellipse cx="324.88" cy="154.4" rx="5.1" ry="2.8" transform="translate(-19.87 257.04) rotate(-42)" fill="#16a5c0" stroke-width="0"/>
  <path d="M554.49,155.35l-19,1-4,1-1-1v-1l-11,3c2.67-3.33,5.33-5,8-5l20-1c2.67,0,5,1,7,3Z" fill="#ff6343" stroke-width="0"/>
  <path d="M554.49,155.35c4.67,4,6.67,9,6,15-1,7-6,12-14,13-9,1-22,2-27-6l1-1h6c.71-.4,1.11-1.19,1-2,0-2-3-8-2-11,.67-2.67,2.67-4.67,6-6l4-1,19-1Z" fill="#e63b33" stroke-width="0"/>
  <path d="M531.49,157.35c-3.33,1.33-5.33,3.33-6,6-1,3,2,9,2,11,.11.81-.29,1.6-1,2h-6c-2-3.33-2.67-7-2-11l-1-1v-2l2-4,11-3v1l1,1Z" fill="#ffc9b8" stroke-width="0"/>
  <rect x="73.69" y="152.77" width="2.7" height="46.7" rx="1.3" ry="1.3" transform="translate(-115.69 159.69) rotate(-62)" fill="#b49c9f" stroke-width="0"/>
  <path d="M169.49,195.35l3,28c.31.18.69.18,1,0,.67-1.33,1.67-2,3-2,.18-.31.18-.69,0-1l3-2v-1l2-2,6,16c0,1,2,4,1,5-6,5-15,18-23,10-3-4-2-7-3-12l-6-44,1-1c1-1,0-4-1-4-2.67-2-8-4.33-16-7l-33-12-4-2c-2-1.33-1.33-2.67,2-4h3l48,14c6,1,12,2,12,8l1,13Z" fill="#ea7a09" stroke-width="0"/>
  <circle cx="29.29" cy="166.15" r="4.5" fill="#fb9312" stroke-width="0"/>
  <path d="M317.49,179.35l-15,3-22,3c-.55,0-1-.45-1-1h0l-4-11h-2v-1l24-8,4-1,8-1c.55,0,1,.45,1,1l4,16c.31.18.69.18,1,0h2Z" fill="#16a5c0" stroke-width="0"/>
  <path d="M347.49,162.35c-.67,1.33.33,1.67,3,1l-1,1v1l-2,1,1,1c1.33,0,1.67.33,1,1-4,0-4,3-6,5h-1l-10,3,2-4v-1h-1v-1l2-1v1c.55,0,1-.45,1-1,1.33-2,3-3,5-3l1-1,5-3Z" fill="#69d2e7" stroke-width="0"/>
  <path d="M517.49,162.35v2l1,1c-.67,4,0,7.67,2,11l-1,1c-2.67-4.67-3.33-9.67-2-15Z" fill="#ff6343" stroke-width="0"/>
  <path d="M301.49,163.35q0-.67,0,0l-4,1-1-1h5Z" fill="#b49c9f" stroke-width="0"/>
  <path d="M296.49,163.35l1,1-24,8-8,3c-2-.67-4-.33-6,1-.92.61-2.16.37-2.77-.55-.09-.14-.17-.29-.23-.45-1-2-3-3-5-3l-17,1v-3l15-2h4l37-4,6-1Z" fill="#69d2e7" stroke-width="0"/>
  <path d="M290.49,164.35l-37,4,5-2,32-2Z" fill="#d06106" stroke-width="0"/>
  <path d="M103.49,164.35l4,2,33,12c8,2.67,13.33,5,16,7,1,0,2,3,1,4l-1,1-22-8-34-12-2-2h1c.31.18.69.18,1,0l3-4Z" fill="#ffac1d" stroke-width="0"/>
  <path d="M388.49,166.35c2.67-.67,5,0,7,2h1c2,0,3.67,1,5,3-4-2-9-5-14-5h1Z" fill="#b49c9f" stroke-width="0"/>
  <path d="M387.49,166.35c5,0,10,3,14,5l-38,5-10-1h-1l-1,4q0-.67,0,0l-11,79-14,2,3-44c5-14,10-26,16-36q0-.67,0,0l-59,8-15,2v-2l5-1,26-5,15-3,9-1,6-2,19-3h3l21-4,8-1,1-1h2l1-1Z" fill="#d06106" stroke-width="0"/>
  <path d="M386.49,167.35h-2l-1,1-8,1,3-1c3,0,4-2,8-1Z" fill="#b49c9f" stroke-width="0"/>
  <path d="M249.49,168.35l-15,2v3l2,8c-2-2-2-5-3-8-1.33-2-.67-3.33,2-4l14-1Z" fill="#d06106" stroke-width="0"/>
  <path d="M349.49,168.35l2,5-19,3,10-3h1c2-2,2-5,6-5Z" fill="#1a516a" stroke-width="0"/>
  <path d="M401.49,171.35l4,16-42-11,38-5Z" fill="#ffc126" stroke-width="0"/>
  <path d="M451.49,199.35v-1l59-27c.31-.18.69-.18,1,0v4l-51,23c-3,2-6,2-9,1Z" fill="#8daac0" stroke-width="0"/>
  <path d="M273.49,172.35v1l3,14-5,1-25,4c-.18.31-.18.69,0,1l8,34q0,2-2,3l-7,2c-4-1-7,1-10,2l-8,2-3,1-1,1-3-1-2-1v-1l4-8,16,4q.67.67,0,0l-7-29v-4c-.67-2-.33-3,1-3l11-5,3-2c1.33-2.67,1.33-5,0-7l19-6,8-3Z" fill="#118caa" stroke-width="0"/>
  <path d="M265.49,175.35l-19,6-8,3c-.67.67-1,.33-1-1l-1-2-2-8,17-1c2,0,4,1,5,3,.37,1.04,1.51,1.59,2.55,1.23.16-.06.31-.13.45-.23,2-1.33,4-1.67,6-1Z" fill="#bee7f4" stroke-width="0"/>
  <path d="M302.49,182.35l-26,5-3-14h2l4,11c0,.55.45,1,1,1h0l22-3Z" fill="#1a516a" stroke-width="0"/>
  <path d="M351.49,179.35l8,1c-.67,1.33-1.67,1.67-3,1-.55-.55-1.45-.55-2,0s-.55,1.45,0,2v2l-3,19v1l1,2-1,1-8,49-3,1,11-79q0-.67,0,0Z" fill="#f9dccc" stroke-width="0"/>
  <path d="M329.49,216.35l-21,44c-.67.67-.33,1,1,1l2,1-46,6-7-27-1-3-3-11-8-34c-.18-.31-.18-.69,0-1l25-4v2l-16,2-4,1c-.71.4-1.11,1.19-1,2l9,37h1c5.33-4,10.33-8.67,15-14,6.67-8,10.33-18,11-30l59-8q0-.67,0,0c-6,10-11,22-16,36ZM602.49,180.35c-1.33,0-1.67.33-1,1,4,8-5,11-9,15-4-9,1-17,10-16Z" fill="#ffc126" stroke-width="0"/>
  <path d="M510.49,204.35l-13-16,16-8,1,1,3,3v1l-7,19Z" fill="#bee7f4" stroke-width="0"/>
  <path d="M602.49,180.35l10,9c.55,0,1,.45,1,1s-.45,1-1,1c-5,1-4,7-10,7-3.33.67-6.67,0-10-2,4-4,13-6,9-15-.67-.67-.33-1,1-1Z" fill="#fb9312" stroke-width="0"/>
  <path d="M359.49,180.35l32,9h-6l-1,3c-8,10.67-18.67,15.67-32,15l-1-2v-1l3-19v-2c-.55-.55-.55-1.45,0-2s1.45-.55,2,0c1.33.67,2.33.33,3-1Z" fill="#ffc9b8" stroke-width="0"/>
  <path d="M471.49,183.35l-26,12,2-12c0-1.1.9-2,2-2h20v1l2,1Z" fill="#19637d" stroke-width="0"/>
  <path d="M246.49,181.35c1.33,2,1.33,4.33,0,7l-3,2-11,5c-1.33,0-1.67,1-1,3l-1-2-2-6-1-1h-1l2-1c2.67,0,5-.67,7-2l1-1c1.33.67,2,.33,2-1l8-3Z" fill="#16a5c0" stroke-width="0"/>
  <path d="M134.49,182.35l22,8,6,44-47-26,17-24,2-2Z" fill="#3487ad" stroke-width="0"/>
  <path d="M237.49,183.35c0,1.33.33,1.67,1,1l-2,1,1-1v-1Z" fill="#5a668e" stroke-width="0"/>
  <path d="M237.49,184.35l-1,1-1,1v-1l2-1Z" fill="#ff6343" stroke-width="0"/>
  <path d="M235.49,185.35v1c-2,1.33-4.33,2-7,2l7-3Z" fill="#8daac0" stroke-width="0"/>
  <path d="M497.49,188.35l13,16-2,4c-5,2-12,6-17,6h-1l-9-2,1-4-1-1-16-5,32-14Z" fill="#118caa" stroke-width="0"/>
  <path d="M286.49,188.35c-.67,12-4.33,22-11,30-4.67,5.33-9.67,10-15,14h-1l-9-37c-.11-.81.29-1.6,1-2l4-1,16-2,15-2ZM452.49,439.35l4-45c1.33-23.33,6.33-46.33,15-69l51-136,1-1,3,1q.67,0,0,0l-51,138c-8,21.33-13,44-15,68l-3,44,1,1,25,1c.31-.18.69-.18,1,0l-1,4-116-1c-6,0-12.67-1.67-20-5-3-2-10-2-15-2l-138-1h-10c-.55,0-1-.45-1-1h0v-2l1-1h147l9,1c8,1,17,6,25,6l87,1v-1Z" fill="#fefefe" stroke-width="0"/>
  <path d="M226.49,189.35q0-.67,0,0h1l1,1,2,6-11,4-7-3h-3l-7,3v-3l24-8Z" fill="#69d2e7" stroke-width="0"/>
  <path d="M391.49,189.35l64,16c-.67,1.33-.33,2,1,2h1l-1,1c-2,2-3,0-4,1l-1,1h-1c-14,5-20,18-23,32h-1v1l-1,1,1,1-52,8,10-61,1-3h6Z" fill="#e63b33" stroke-width="0"/>
  <path d="M95.49,198.35l-1,2v1l1-1,12,5c.55-.28,1.22-.05,1.5.5.28.55.05,1.22-.5,1.5l-1,1c-.31.18-.69.18-1,0l-12-6h-7c-4-2-8.33-3.33-13-4v-4c3-2,8-5,12-4,3,0,7,5,9,8Z" fill="#fb9312" stroke-width="0"/>
  <path d="M74.49,194.35v2l-7-3c-.18-.31-.18-.69,0-1l2-1,5,3Z" fill="#ffc126" stroke-width="0"/>
  <path d="M384.49,192.35l-10,61-31,4,8-50h1c13.33.67,24-4.33,32-15Z" fill="#ff6343" stroke-width="0"/>
  <path d="M532.49,194.35h1v1c9.33,16.67,15.33,34.33,18,53l2,14,1,1,29-4h3c.55,0,1,.45,1,1l-3,2-30,4h-1l1,6-1,25h-2l-5,2-29-5c0,1.33-1.67,2-5,2-1.33-7.33-6-10.67-14-10l34-92ZM520.49,269.35v-3h-12c-1,0-2,1-1,2-.18.31-.18.69,0,1h13c.67,5.33,3.33,8.33,8,9,6,2,12-3,14-9v-5l-4-5c-4-3.33-8.67-2.67-14,2-2.67,1.33-4,4-4,8Z" fill="#69d2e7" stroke-width="0"/>
  <path d="M230.49,196.35l1,2v4l-5,13-4,12-4,8h-5l-24,14-1,2h-1l1-15c1-1-1-4-1-5l-6-16-3-7c-1.1-.55-1.55-1.9-1-3,.55-1.1,1.9-1.55,3-1l22-7v3l-11,3-7,3c12,0,23.67-2,35-6l11-4Z" fill="#35d1e4" stroke-width="0"/>
  <path d="M219.49,200.35c-11.33,4-23,6-35,6l7-3,11-3,7-3h3l7,2v1Z" fill="#fefefe" stroke-width="0"/>
  <rect x="67.39" y="191.64" width="3.3" height="60.9" rx="1.6" ry="1.6" transform="translate(-163.42 215.07) rotate(-71)" fill="#26c0db" stroke-width="0"/>
  <path d="M95.49,198.35v2l-1,1v-1l1-2Z" fill="#ffc126" stroke-width="0"/>
  <path d="M231.49,202.35l7,29q.67.67,0,0l-16-4,4-12,5-13Z" fill="#26c0db" stroke-width="0"/>
  <path d="M455.49,205.35l8,2v1l-7,23-3,9v1h-2l1-3,3-15v-1c2-1,1-3,2-5l2-7c0-.55-.45-1-1-1-.55,0-1,.45-1,1h0l-4,12h-1l1-2,3-12,1-1h-1c-1.33,0-1.67-.67-1-2Z" fill="#fefefe" stroke-width="0"/>
  <rect x="563.69" y="212.98" width="18.2" height="2.9" rx="1.3" ry="1.3" transform="translate(-36.96 262.16) rotate(-25)" fill="#f5452d" stroke-width="0"/>
  <path d="M115.49,208.35l47,26c1,5,0,8,3,12,1,5,7,4,11,4l3,3c.18.31.18.69,0,1l-11,4h2l-16,4h-4v1l1,2,8,20-11,1,1-6q.67,0,0,0l-1,1h-14c-1.33,0-2,.67-2,2v3l-1,3-3,1c-2,2-2,5.33,0,10l4,10c.67,2,.33,3-1,3l-12,1-1-1-4-1v1l-10-3-4-2h-1c-2,2,0,4-2,6-1.33-12-1.67-24.67-1-38l3-26c3.33-14,8.67-28,16-42ZM120.49,266.35c6,4,17-2,15-10-.67-1.33-1.67-2-3-2-2,0-3,2-4,3l-8,8c-.18.31-.18.69,0,1Z" fill="#69d2e7" stroke-width="0"/>
  <path d="M463.49,208.35l18,4,9,2c-7,0-14-2-22-4l-5-2Z" fill="#b49c9f" stroke-width="0"/>
  <path d="M456.49,208.35l-3,12h-1l-9,19v1l-1,3-16,2-1-1,1-1v-1h1c3-14,9-27,23-32h1l1-1c2-1,2,1,4-1Z" fill="#cc2f2b" stroke-width="0"/>
  <path d="M508.49,208.35l-5,14v-1h-1l-11-7c5,0,12-4,17-6Z" fill="#98dceb" stroke-width="0"/>
  <path d="M463.49,208.35l5,2c8,2,15,4,22,4h1l-4,12c0-2-1.33-2.33-4-1l-27,6,7-23Z" fill="#e63b33" stroke-width="0"/>
  <path d="M452.49,241.35l-7,1,7-20h1l4-12c0-.55.45-1,1-1,.55,0,1,.45,1,1h0s-2,7-2,7c-1,2,0,4-2,5v1l-3,15-1,3h1Z" fill="#b49c9f" stroke-width="0"/>
  <path d="M491.49,214.35l11,7h1v1l-2,6-15-1,1-1,4-12ZM559.49,228.35c3-1,6-3,8-6l2-4c-3-5-9,2-11,5,1.33-3.33,3.33-5.67,6-7,5-1,9,2,8,7-1,6-9,10-13,5Z" fill="#16a5c0" stroke-width="0"/>
  <path d="M559.49,228.35c-1.33-2-1.67-3.67-1-5,2-3,8-10,11-5l-2,4c-2,3-5,5-8,6Z" fill="#69d2e7" stroke-width="0"/>
  <path d="M329.49,216.35l-3,44-15,2-2-1c-1.33,0-1.67-.33-1-1l21-44Z" fill="#ea7a09" stroke-width="0"/>
  <path d="M453.49,220.35l-1,2-7,20-3,1,1-3v-1l9-19h1Z" fill="#ad311a" stroke-width="0"/>
  <path d="M487.49,226.35l-1,1-3,10-30,4v-1l3-9,27-6c2.67-1.33,4-1,4,1Z" fill="#cc2f2b" stroke-width="0"/>
  <path d="M62.49,238.35c-3.33,2.67-5.67,5.67-7,9v1l1,4c0,.55-.45,1-1,1l-4-3h-1c-6,4-11,9.67-15,17-1-2,2-11,2-13,.08-.33.08-.67,0-1l-10-13c-.56-.95-.25-2.18.7-2.74.39-.23.85-.32,1.3-.26l12,1c6,0,10-8,14-12,0-.55.45-1,1-1s1,.45,1,1l5,12Z" fill="#69d2e7" stroke-width="0"/>
  <path d="M254.49,227.35l3,11-8,3c-2-1.33-3-4.33-3-9h-1l7-2q2-1,2-3Z" fill="#ad311a" stroke-width="0"/>
  <path d="M486.49,227.35l15,1-2,5c0,1.1-.9,2-2,2h0s-14,2-14,2l3-10Z" fill="#69d2e7" stroke-width="0"/>
  <path d="M245.49,232.35h1-3c-6,2-11,4-16,4l8-2c3-1,6-3,10-2Z" fill="#d06106" stroke-width="0"/>
  <path d="M246.49,232.35c0,4.67,1,7.67,3,9l-16,5-9,1c0-3.33-.67-6-2-8l-2-2,3,1,1-1,3-1c5,0,10-2,16-4h3Z" fill="#e63b33" stroke-width="0"/>
  <path d="M218.49,235.35v1c-2,0-3.33.67-4,2v1h1c.55-.28,1.22-.05,1.5.5s.05,1.22-.5,1.5c-7.33,4-14.67,7-22,9-2-.67-4,0-6,2-2,1.33-4.67,2-8,2l8-3,1-2,24-14h5Z" fill="#fefefe" stroke-width="0"/>
  <path d="M218.49,236.35l2,1,2,2c-1.33,0-2.67-1-4-3Z" fill="#ff6343" stroke-width="0"/>
  <path d="M188.49,236.35l-1,15h1l-8,3-10,4h-2l11-4c.18-.31.18-.69,0-1l-3-3c-4,0-10,1-11-4,8,8,17-5,23-10Z" fill="#98dceb" stroke-width="0"/>
  <path d="M218.49,236.35c1.33,2,2.67,3,4,3,1.33,2,2,4.67,2,8l-23,6-7,1h-1v1l-35,7-6,2c-1.33,0-1.67.33-1,1l-1-2v-1h4l16-4,10-4c3.33,0,6-.67,8-2l6-2c7.33-2,14.67-5,22-9,.55-.28.78-.95.5-1.5s-.95-.78-1.5-.5h-1v-1c.67-1.33,2-2,4-2Z" fill="#f5452d" stroke-width="0"/>
  <path d="M62.49,238.35c1,3,9,5,12,6l2,2-1,2-9,7c-4,3-3,10-3,15-.37,1.04-1.51,1.59-2.55,1.23-.16-.06-.31-.13-.45-.23l-10-7-1-1-14,4c4-7.33,9-13,15-17h1l4,3c.55,0,1-.45,1-1l-1-4v-1c1.33-3.33,3.67-6.33,7-9Z" fill="#16a5c0" stroke-width="0"/>
  <path d="M257.49,238.35l1,3-13,4-11,3-1-2,16-5,8-3Z" fill="#ff6343" stroke-width="0"/>
  <path d="M258.49,241.35l7,27-14,2v-1h-1l-5-24,13-4Z" fill="#ad311a" stroke-width="0"/>
  <path d="M494.49,246.35l-26,4-327,47-2,2-1-1-2-4v-1l359-52,1,1-2,4Z" fill="#fefefe" stroke-width="0"/>
  <path d="M595.49,242.35c.2.71.2,1.48,0,2l-42,8c-.2-.71-.2-1.48,0-2h-1l1-1,42-7Z" fill="#ff6d36" stroke-width="0"/>
  <path d="M245.49,245.35l5,24h1v1l-11,2-6-24q.67,0,0,0l11-3Z" fill="#f5452d" stroke-width="0"/>
  <path d="M92.49,252.35c-1.1.28-2.22-.4-2.5-1.5s.4-2.22,1.5-2.5l6-2c.55,0,1,.45,1,1l-1,4v1h-5Z" fill="#26c0db" stroke-width="0"/>
  <path d="M233.49,246.35l1,2q.67,0,0,0l-54,12c-.96.29-1.71,1.04-2,2,0,4-3,9-7,10s-15-6-19-8l6-2,35-7v-1h1l7-1,23-6,9-1Z" fill="#ffc9b8" stroke-width="0"/>
  <path d="M494.49,246.35l-14,38c-3.33,3.33-5.67,7.33-7,12l-3,9-2,9-8,24h-10l16-46,7-18v-1h-1l-26,3h-4l-5,1-9,1h-6c5-2,11-1,16-4,10-6.67,20-14.67,30-24l26-4Z" fill="#16a5c0" stroke-width="0"/>
  <path d="M234.49,248.35l6,24-81,13-8-20c-.67-.67-.33-1,1-1,4,2,15,9,19,8s7-6,7-10c.29-.96,1.04-1.71,2-2l54-12Z" fill="#fb9312" stroke-width="0"/>
  <path d="M468.49,250.35c-10,9.33-20,17.33-30,24-5,3-11,2-16,4h-2c-6,0-15,0-20,2h-1l-6,1h-4l-14,2-13,1-25,3h-7l-5,1-53,6h-8l-14,2-38,4h-3l-5,1h-7l-21,2-20,1h-4l-11,2v-1l-3-7,1,1c1.33.67,2,0,2-2l327-47Z" fill="#26c0db" stroke-width="0"/>
  <path d="M194.49,250.35l-6,2c2-2,4-2.67,6-2Z" fill="#ffc9b8" stroke-width="0"/>
  <path d="M120.49,266.35c-.18-.31-.18-.69,0-1l8-8c1-1,2-3,4-3,1.33,0,2.33.67,3,2,2,8-9,14-15,10Z" fill="#fefefe" stroke-width="0"/>
  <path d="M538.49,259.35l-4-1h-1c-5,2-7,10-9,16v1l4,3c-4.67-.67-7.33-3.67-8-9,0-4,1.33-6.67,4-8,5.33-4.67,10-5.33,14-2Z" fill="#ffc126" stroke-width="0"/>
  <path d="M538.49,259.35l4,5v5c-2,6-8,11-14,9-2-.67-3.33-2-4-4,2-6,4-14,9-16h1l4,1Z" fill="#fb9312" stroke-width="0"/>
  <path d="M520.49,269.35h-13c-.18-.31-.18-.69,0-1-1-1,0-2,1-2h12v3Z" fill="#16a5c0" stroke-width="0"/>
  <path d="M554.49,272.35c10,24,9,50,1,75h-1l-1-1c-4.67,2-8.67,5-12,9l-3,2c1-2,3-3,3-5,6-18,10-36.33,12-55l1-25Z" fill="#bee7f4" stroke-width="0"/>
  <path d="M466.49,292.35l1-5,6-13-1-1h1v1l-7,18Z" fill="#5a668e" stroke-width="0"/>
  <path d="M472.49,273.35l1,1-6,13-24,1,3-12,26-3Z" fill="#cc2f2b" stroke-width="0"/>
  <path d="M636.49,277.35c-3,1-3,7-3,10h-3v-1c0-2-.67-2.33-2-1l-5,7c-4,3-9,7-11,12h-1l-3,4c5-10,2-14-2-23-.56-.95-.25-2.18.7-2.74.39-.23.85-.32,1.3-.26l12,3c1.42.43,2.95.05,4-1l10-10c.31-.18.69-.18,1,0l1,3ZM617.49,288.35l-6-4-2-1c-.55-.28-1.22-.05-1.5.5s-.05,1.22.5,1.5l5,6c0,.55.45,1,1,1s1-.45,1-1l2-3Z" fill="#ffc126" stroke-width="0"/>
  <path d="M442.49,276.35h4l-3,12-17,51-3,1-1-1,20-63Z" fill="#b49c9f" stroke-width="0"/>
  <path d="M96.49,276.35c-.67,13.33-.33,26,1,38,2.67,16.67,7,33,13,49,8.67,24.67,21,48.33,37,71l23,30c-1.33,2.67-2,6-2,10v-2h-1v4l-1,1h-13l-2-1c-14.67-19.33-26.67-38.67-36-58l-1-1-1-2-13-31-6-17c-9-31-12-60,2-91Z" fill="#bee7f4" stroke-width="0"/>
  <path d="M437.49,277.35l-20,62-1,1c-4-2-7,0-10-1-.18-.31-.18-.69,0-1l16-47v-1l-24,3,3-13,14-1,13-1,9-1Z" fill="#cc2f2b" stroke-width="0"/>
  <path d="M636.49,277.35l2,10c.14.75.48,1.44,1,2l10,7c.55,0,1,.45,1,1,0,.55-.45,1-1,1l-1,1-3-1c-4,.67-7.33-.33-10-3-2-2-2-5-2-8s0-9,3-10Z" fill="#ea7a09" stroke-width="0"/>
  <path d="M420.49,278.35l-5,1-14,1h-1c5-2,14-2,20-2Z" fill="#5a668e" stroke-width="0"/>
  <path d="M420.49,278.35h8l-13,1,5-1Z" fill="#ad311a" stroke-width="0"/>
  <path d="M148.49,286.35l-17,3,1-3v-3c0-1.33.67-2,2-2h14l1-1q.67,0,0,0l-1,6Z" fill="#26c0db" stroke-width="0"/>
  <path d="M400.49,280.35h1l-3,13c-3.33,16.67-7.33,32.67-12,48l-1,1-1-1,13-59,2-2h1Z" fill="#b49c9f" stroke-width="0"/>
  <path d="M389.49,281.35h3l-3,13-24,2-30,2v1l-2,18,1-15v-15h3l25-3,13-1,14-2Z" fill="#cc2f2b" stroke-width="0"/>
  <path d="M375.49,283.35l-13,1,13-1Z" fill="#d06106" stroke-width="0"/>
  <path d="M617.49,288.35l-2,3c0,.55-.45,1-1,1s-1-.45-1-1l-5-6c-.55-.28-.78-.95-.5-1.5s.95-.78,1.5-.5l2,1,6,4Z" fill="#fefefe" stroke-width="0"/>
  <path d="M480.49,284.35c-3.33,10.67-7.33,20.67-12,30l2-9,3-9c1.33-4.67,3.67-8.67,7-12Z" fill="#98dceb" stroke-width="0"/>
  <path d="M633.49,287.35c0,3,0,6,2,8,2.67,2.67,6,3.67,10,3l3,1-14,5v1l-3,11c0,.55-.45,1-1,1s-1-.45-1-1l-6-6c-.4-.71-1.19-1.11-2-1l-11,2c-1.33.67-2,.33-2-1v-2l3-4h1c2-5,7-9,11-12l5-7c1.33-1.33,2-1,2,1v1h3Z" fill="#fb9312" stroke-width="0"/>
  <path d="M512.49,296.35c1.33,2.67,1.33,5.33,0,8l-4,18c-.67,2-2,3-4,3l-20-2,14-37c8-.67,12.67,2.67,14,10Z" fill="#16a5c0" stroke-width="0"/>
  <path d="M331.49,287.35v4l-1,53h-1l1-57h1Z" fill="#b49c9f" stroke-width="0"/>
  <path d="M467.49,287.35l-1,5-16,46-24,1,17-51,24-1Z" fill="#e63b33" stroke-width="0"/>
  <path d="M331.49,287.35h4-1v15l-1,15-1,27h-2l1-53v-4Z" fill="#d06106" stroke-width="0"/>
  <path d="M325.49,288.35l-1,12-14,1-33,3h-4l-1-10,53-6Z" fill="#b84b0b" stroke-width="0"/>
  <path d="M416.49,340.35l-30,1c4.67-15.33,8.67-31.33,12-48l24-3v1l-16,47c-.18.31-.18.69,0,1,3,1,6-1,9,1h1Z" fill="#e63b33" stroke-width="0"/>
  <path d="M128.49,290.35l8,20c.31.18.69.18,1,0h11l1,1,3,7-28,3c-.67-1.33-.33-2.33,1-3l6-5c1.33,0,1.67-1,1-3l-4-10c-2-4.67-2-8,0-10Z" fill="#26c0db" stroke-width="0"/>
  <rect x="578.68" y="285.9" width="2.5" height="15.4" rx=".9" ry=".9" transform="translate(276.26 868.31) rotate(-89)" fill="#e63b33" stroke-width="0"/>
  <path d="M389.49,294.35l-11,47v1l-21,1,8-47,24-2Z" fill="#e63b33" stroke-width="0"/>
  <path d="M272.49,294.35l1,10,2,43h-3l-2-45-1-8h3Z" fill="#bfc8d7" stroke-width="0"/>
  <path d="M546.49,299.35v1c0,.55-.45,1-1,1l-26-3c-2-1-2-2-2-4l29,5Z" fill="#16a5c0" stroke-width="0"/>
  <path d="M264.49,294.35l1,11h-11c-.81.11-1.6-.29-2-1l-1-7-1-1,14-2Z" fill="#e63b33" stroke-width="0"/>
  <path d="M517.49,294.35c0,2,0,3,2,4l26,3c.55,0,1-.45,1-1v-1l5-2h2c-2,18.67-6,37-12,55,0,2-2,3-3,5l-8,7h-5c-2.67-1.33-5.67-1.67-9-1l-12-2-4,2v6l8,20-5,10v-4l-2-2,1-1v-1l-3-9v1l-1-1-4-8c-2-4-5-6-8-8v-5l-1-1h-5l1-6v-1l-2-2c-.18-.31-.18-.69,0-1l2-3c.18-.31.18-.69,0-1-3.33.67-4.67,2.67-4,6v1h-3c2.67-10.67,6-20.67,10-30l20,2c2,0,3.33-1,4-3l4-18c1.33-2.67,1.33-5.33,0-8,3.33,0,5-.67,5-2ZM511.49,324.35c2,6,5.67,7,11,3,2-2,2.67-4.67,2-8-1.33-4-4.67-5-10-3l-1,1c-1.33,2-2,4.33-2,7Z" fill="#35d1e4" stroke-width="0"/>
  <path d="M365.49,296.35l-8,47-25,1,1-27,2-18v-1l30-2Z" fill="#ff6343" stroke-width="0"/>
  <path d="M250.49,296.35l1,1,1,7c.4.71,1.19,1.11,2,1h11l2,42v1h-2l-12-42c-.2-.44-.56-.8-1-1l-30,2-8,1h-1l-1-3-1-3v-1l1-1,38-4Z" fill="#f5452d" stroke-width="0"/>
  <path d="M141.49,297.35c0,2-.67,2.67-2,2l2-2Z" fill="#118caa" stroke-width="0"/>
  <path d="M47.49,300.35c-2.67,6-6.33,11-11,15l-7,5c-7-13,4-25,18-20ZM34.49,311.35c3-1,5-6,4-9-4-1-8,3-10,7v1c2,3,4,2,6,1Z" fill="#ffc126" stroke-width="0"/>
  <path d="M211.49,300.35c-1.33,2.67-1,4.33,1,5l1,3,5,32,2,10-2-1-9-49h2Z" fill="#b49c9f" stroke-width="0"/>
  <path d="M324.49,300.35l-1,44v1h-4l-1-2v-1l-8-41,14-1Z" fill="#ea7a09" stroke-width="0"/>
  <path d="M211.49,300.35h1l-1,1v1l1,3c-2-.67-2.33-2.33-1-5Z" fill="#ff6343" stroke-width="0"/>
  <path d="M47.49,300.35c3.33,2.67,5.33,6,6,10v3c-2.67,9.33-8.67,13-18,11l-6-4,7-5c4.67-4,8.33-9,11-15Z" fill="#ea7a09" stroke-width="0"/>
  <path d="M204.49,301.35l1,7-29,2h-5l-2-5c0-.55.45-1,1-1l6-1,21-2h7Z" fill="#ff6d36" stroke-width="0"/>
  <path d="M310.49,301.35l8,41v1l1,2-31,2-11-43,33-3Z" fill="#ffc126" stroke-width="0"/>
  <path d="M34.49,311.35c-2,1-4,2-6-1v-1c2-4,6-8,10-7,1,3-1,8-4,9Z" fill="#fce8b2" stroke-width="0"/>
  <path d="M176.49,303.35l-6,1c-.55,0-1,.45-1,1l2,5c.67,4,2,7,4,9l15,31c-3.33,1.33-7.33,1.67-12,1l-22-47,20-1ZM165.49,321.35c0,5,5,4,8,3l1-1-1-2-1-1h-7v1Z" fill="#19637d" stroke-width="0"/>
  <path d="M273.49,304.35h4l11,43h-13l-2-43Z" fill="#ad311a" stroke-width="0"/>
  <path d="M156.49,304.35l22,47c-1.33,1.33-2.33,1.33-3,0-8-14-15.67-29.67-23-47h4Z" fill="#fefefe" stroke-width="0"/>
  <path d="M265.49,348.35l-44,2v-4l-7-38,8-1,30-2c.44.2.8.56,1,1l12,42ZM205.49,308.35l7,41v1l-19,1v-3l-17-38,29-2Z" fill="#fb9312" stroke-width="0"/>
  <path d="M131.49,313.35l-6,5c-1.33.67-1.67,1.67-1,3h-2c-1.09-.15-2.11.61-2.26,1.7-.06.45.03.91.26,1.3,1.33,2,2.67,3,4,3l10,21c-.67,4,1,7.67,5,11l23,21h-2l-16,6c-4,1-3,6,1,6-1.33,1.33-2.33,1-3-1h-4l-1-1c-.67-3.33-2.67-5.67-6-7h-1c-1.33-2-3-3.33-5-4v1l-2-3-1-1-1-1v-1l-6-8v-1l-1-1c-.55,0-1,.45-1,1v1c-.31.18-.69.18-1,0l-2-3c-6-16-10.33-32.33-13-49,2-2,0-4,2-6h1l4,2,10,3v-1l4,1,1,1,12-1Z" fill="#35d1e4" stroke-width="0"/>
  <path d="M214.49,308.35l7,38v4h-1l-2-10-5-32h1Z" fill="#ff6d36" stroke-width="0"/>
  <path d="M53.49,313.35v-3l22-2c.83-.28,1.72.17,2,1,.28.83-.17,1.72-1,2h0l-3,1-20,1Z" fill="#69d2e7" stroke-width="0"/>
  <path d="M171.49,310.35h1l4,9c-2.67-2-4.33-5-5-9Z" fill="#ad311a" stroke-width="0"/>
  <path d="M176.49,310.35l17,38v3l-3-1-15-31-3-9h4Z" fill="#f9dccc" stroke-width="0"/>
  <path d="M524.49,319.35c0,4-1.67,6.67-5,8s-6,.33-8-3c0-2.67.67-5,2-7l1-1c5.33-2,8.67-1,10,3ZM514.49,322.35l3-2c1.19-.39,1.71-1.15,1.16-1.7-.55-.55-1.97-.68-3.16-.3l-2,4c.31.18.69.18,1,0Z" fill="#ffac1d" stroke-width="0"/>
  <path d="M152.49,318.35l3,5c-10,0-20.33,1.33-31,4-1.33,0-2.67-1-4-3-.56-.95-.25-2.18.7-2.74.39-.23.85-.32,1.3-.26h2l28-3Z" fill="#fefefe" stroke-width="0"/>
  <path d="M513.49,322.35l2-4c1.19-.39,2.61-.26,3.16.3.55.55.03,1.32-1.16,1.7l-3,2c-.31.18-.69.18-1,0Z" fill="#fce8b2" stroke-width="0"/>
  <path d="M524.49,319.35c.67,3.33,0,6-2,8-5.33,4-9,3-11-3,2,3.33,4.67,4.33,8,3s5-4,5-8Z" fill="#b49c9f" stroke-width="0"/>
  <path d="M173.49,324.35c-3,1-8,2-8-3v-1h7l1,1,1,2-1,1Z" fill="#bee7f4" stroke-width="0"/>
  <rect x="585.24" y="317.51" width="2" height="28" rx=".7" ry=".7" transform="translate(74.22 769.01) rotate(-70)" fill="#ffc126" stroke-width="0"/>
  <path d="M155.49,324.35l7,13c-7.33-1.33-14-1-20,1-4,1.33-6.67,4.67-8,10l-10-21c10.67-2.67,21-4,31-4v1Z" fill="#26c0db" stroke-width="0"/>
  <path d="M583.49,341.35l-1,1-15-6c-.55,0-1-.45-1-1,0-2,1-2,3-1l14,7Z" fill="#bfc8d7" stroke-width="0"/>
  <path d="M591.49,365.35l-4-2h-9l-1-6c.08-.33.08-.67,0-1l-7-6c0-.55.45-1,1-1h0c4.67-1.33,8.33-3.67,11-7l1-1,3-4c-.62-1.08-.45-1.95.38-1.95.83,0,2,.87,2.62,1.95,1,3,3,7,6,9,3,1,7,1,9,3v1l-8,6c-.58.51-.94,1.23-1,2l-1,8c.18.31.18.69,0,1-1.33,0-2.33-.67-3-2Z" fill="#f5452d" stroke-width="0"/>
  <path d="M162.49,337.35l7,14v1h-9c-5,0-4,5-2,6,3,2,11,1,14,1h1l13,27c.67,1.33.33,2-1,2l-1,1c-.18.31-.18.69,0,1-1,4,1,7,6,7l32-1,10,29h-46c-6-14-12.67-27.33-20-40,0-3.33-1.33-5-4-5l-23-21c-4-3.33-5.67-7-5-11,1.33-5.33,4-8.67,8-10,6-2,12.67-2.33,20-1ZM437.49,380.35l11-34,9-1,1,1c-3.33,12.67-6,25.67-8,39,0,1.33-.33,1.67-1,1-3.33-2.67-7.33-4.67-12-6Z" fill="#16a5c0" stroke-width="0"/>
  <path d="M448.49,346.35l-11,34-2,8-3,1h-22l13-42,25-1Z" fill="#e63b33" stroke-width="0"/>
  <path d="M503.49,399.35l-4,8-18,27h-17v-1c1-28,3-54,10-80h3v-1c-.67-3.33.67-5.33,4-6,.18.31.18.69,0,1l-2,3c-.18.31-.18.69,0,1l2,2v1l-1,6h6v6c3,2,6,4,8,8l4,8,1,1v-1l3,9v1l-1,1,2,2v4Z" fill="#26c0db" stroke-width="0"/>
  <path d="M553.49,346.35l-1,6-1-3h-2l-8,6c3.33-4,7.33-7,12-9Z" fill="#ff6343" stroke-width="0"/>
  <path d="M553.49,346.35l1,1,7,29c1,3,4,4,6,5l3,1,1,1,1,1c0,.55-.45,1-1,1h0c-6,1-11,2-17,5-14.67,8-29.67,14.33-45,19l-7,1v-1l1-2v1h1l8-12c1.33-2.67,1-5-1-7h-1v2-1h-2v-1l-8-20v-6c1.33,0,2,.67,2,2l5,9h1l12-5,4-1c.55-.28.78-.95.5-1.5s-.95-.78-1.5-.5l-18-3c-1.33,0-1.67-.67-1-2l12,2,9,1h5l-1,3c-.55.28-.78.95-.5,1.5s.95.78,1.5.5l5-3c6.67-4,12.33-8.67,17-14l1-6Z" fill="#ff6d36" stroke-width="0"/>
  <path d="M423.49,347.35l-13,42h-3v-1l13-40c-.18-.31-.18-.69,0-1h3Z" fill="#b49c9f" stroke-width="0"/>
  <path d="M374.49,385.35h1l1-1,8-35,30-1-13,40c0,.55-.45,1-1,1l-26-1v-3Z" fill="#e63b33" stroke-width="0"/>
  <path d="M552.49,352.35c-4.67,5.33-10.33,10-17,14l-5,3c-.55.28-1.22.05-1.5-.5s-.05-1.22.5-1.5l1-3,8-7,3-2,8-6h2l1,3Z" fill="#f9dccc" stroke-width="0"/>
  <path d="M384.49,349.35l-8,35-1,1h-1c3.33-11.33,6-23,8-35l1-1h1Z" fill="#b49c9f" stroke-width="0"/>
  <path d="M350.49,388.35h1l-1-1,6-36,20-1h1l-9,38c-.31.18-.69.18-1,0h-17Z" fill="#e63b33" stroke-width="0"/>
  <path d="M571.49,357.35l-1,1-11-5-3-3q-.67,0,0,0c4,0,10,3,14,6h1v1Z" fill="#bee7f4" stroke-width="0"/>
  <path d="M356.49,351.35l-6,36,1,1h-21l-1-4v-6l1-6c4,0,17-1,12-9v-1l-11-1-1-8v-1l26-1Z" fill="#ff6343" stroke-width="0"/>
  <path d="M330.49,352.35v1l-1,26v5l1,4h-2c-.18-.31-.18-.69,0-1v-34l1-1h1Z" fill="#b49c9f" stroke-width="0"/>
  <path d="M320.49,388.35c-.67-11.33-.33-23,1-35h-5,7l-1,34-1,1h-1Z" fill="#ffac1d" stroke-width="0"/>
  <path d="M316.49,353.35h5c-1.33,12-1.67,23.67-1,35h-19l-2-1v-3l-9-30,26-1Z" fill="#ffc126" stroke-width="0"/>
  <path d="M330.49,353.35l1,8-1,11-1,6v1l1-26ZM290.49,354.35l9,30-22,1v-14l2,11,1,1,2-4-4-20-1-5h13Z" fill="#ad311a" stroke-width="0"/>
  <path d="M274.49,354.35c1.33,7.33,1.33,14.33,0,21l-1-20v-1h1Z" fill="#bfc8d7" stroke-width="0"/>
  <path d="M274.49,354.35h3l1,5c-1.33,4-1.67,8-1,12v14h-2l-1-10c1.33-6.67,1.33-13.67,0-21Z" fill="#b49c9f" stroke-width="0"/>
  <path d="M269.49,375.35l-42,4-3-18-2-4,45-2h1l1,20Z" fill="#fb9312" stroke-width="0"/>
  <path d="M222.49,357.35l-1,1v1l2,8v4l3,15-1,1v-1l-5-29h2Z" fill="#b49c9f" stroke-width="0"/>
  <path d="M222.49,357.35l2,4,3,18,1,7h1-3l-3-15v-4l-2-8v-1l1-1Z" fill="#e63b33" stroke-width="0"/>
  <path d="M571.49,357.35l4,2,1,1,1,3c.55.28.78.95.5,1.5s-.95.78-1.5.5h-5c-1.1,0-2-.9-2-2l1-5,1-1Z" fill="#98dceb" stroke-width="0"/>
  <path d="M94.49,367.35l6,17-4,14c-.18.31-.18.69,0,1,1,4,4,6,7,8,.55.28.78.95.5,1.5s-.95.78-1.5.5l-11-2c-3,0-6-1-7,3l-2,14-8-12c-.62-.36-1.38-.36-2,0-5,1-10,6-15,6l18-16c4-4,8-5,11-10l9-19c0-.55-.45-1-1-1l-16,7c-2,0-4.67-1.33-8-4l-9-16v-1c.37-1.04,1.51-1.59,2.55-1.23.16.06.31.13.45.23l16,13c1.05,1.05,2.58,1.43,4,1l10-4Z" fill="#fb9312" stroke-width="0"/>
  <path d="M216.49,368.35l-15,1-5-11,17-1,1,1,2,10Z" fill="#ff6d36" stroke-width="0"/>
  <path d="M196.49,358.35l5,11,5,12v4l-13-27h3Z" fill="#fce8b2" stroke-width="0"/>
  <path d="M193.49,358.35l13,27v2h-10l-14-29h11Z" fill="#19637d" stroke-width="0"/>
  <path d="M182.49,358.35l14,29h-3l-15-28,1-1h3Z" fill="#fefefe" stroke-width="0"/>
  <path d="M61.49,359.35l9,16,7,22c.11.81-.29,1.6-1,2l-2,2c-.31.18-.69.18-1,0-2-3-4-5-7-6-8.67-.67-17-2-25-4v-1c8-1.33,16.33-1.67,25-1v-1c-3-7-6-17-5-25,0-1.33-.33-1.67-1-1l1-3Z" fill="#fce8b2" stroke-width="0"/>
  <path d="M278.49,359.35l4,20c0,2-.67,3.33-2,4l-1-1-2-11c-.67-4-.33-8,1-12Z" fill="#e75221" stroke-width="0"/>
  <rect x="18.01" y="397.66" width="52.7" height="4.8" rx="2" ry="2" transform="translate(-48.42 8.39) rotate(-7)" fill="#26c0db" stroke-width="0"/>
  <path d="M331.49,361.35l11,1v1c5,8-8,9-12,9l1-11Z" fill="#e63b33" stroke-width="0"/>
  <path d="M504.49,361.35c-.67,1.33-.33,2,1,2h-3v2c0-1.33-.67-2-2-2l4-2Z" fill="#ffc9b8" stroke-width="0"/>
  <path d="M70.49,375.35c3.33,2.67,6,4,8,4l16-7c.55,0,1,.45,1,1l-9,19c-3,5-7,6-11,10l-18,16c-2,1.33-3.33,3-4,5-.31.18-.69.18-1,0l-1-1,3-17c.18-.31.18-.69,0-1l-20-12c-1.1-.28-1.78-1.4-1.5-2.5s1.4-1.78,2.5-1.5c6-3,15-4,22-7l1-1,2-18c.67-.67,1-.33,1,1-1,8,2,18,5,25v1c-8.67-.67-17-.33-25,1v1c8,2,16.33,3.33,25,4,3,1,5,3,7,6,.31.18.69.18,1,0l2-2c.71-.4,1.11-1.19,1-2l-7-22Z" fill="#ffc126" stroke-width="0"/>
  <path d="M516.49,363.35c3.33-.67,6.33-.33,9,1l-9-1Z" fill="#b49c9f" stroke-width="0"/>
  <path d="M505.49,363.35l18,3c.55-.28,1.22-.05,1.5.5s.05,1.22-.5,1.5l-4,1-12,5h-1l-5-9v-2h3Z" fill="#f9dccc" stroke-width="0"/>
  <path d="M110.49,363.35l2,3c.31.18.69.18,1,0v-1c0-.55.45-1,1-1l1,1q.67,0,0,0v1l6,8v1l1,1,1,1,2,3v-1c2,.67,3.67,2,5,4h1c3.33,1.33,5.33,3.67,6,7l1,1h4c.67,2,1.67,2.33,3,1l21-7c7.33,12.67,14,26,20,40-5,0-9,1-8,8,.67,6,2,11.33,4,16v2c-5.33,2.67-9.33,7-12,13l-23-30c-16-22.67-28.33-46.33-37-71Z" fill="#26c0db" stroke-width="0"/>
  <path d="M591.49,365.35l-12,1c-.55,0-1-.45-1-1v-2h9l4,2Z" fill="#fce8b2" stroke-width="0"/>
  <path d="M216.49,368.35l3,18-13,1v-6l-5-12,15-1Z" fill="#fb9312" stroke-width="0"/>
  <path d="M269.49,375.35v10l-40,1h-1l-1-7,42-4Z" fill="#ff6d36" stroke-width="0"/>
  <path d="M561.49,376.35l21,13c4,3,3,6,0,7l-23,10c-4,2-11,21-13,26-.44,1.26-1.67,2.08-3,2l-3-2-14-16-4-1h-24c0-2.67.67-5,2-7,3.33-5.33,6-11.33,8-18h2v1l-7,16-1,2v1l6-1c16-4.67,31.33-11,46-19l17-5c.55,0,1-.45,1-1h0l-1-1-1-1-3-1c-2-1-5-2-6-5Z" fill="#e75221" stroke-width="0"/>
  <path d="M162.49,380.35c2.67,0,4,1.67,4,5l-21,7c-4,0-5-5-1-6l16-6h2Z" fill="#fefefe" stroke-width="0"/>
  <path d="M100.49,384.35l13,31,1,2h-14c-.55,0-1,.45-1,1-2,5-7,22-11,24h-1l-3-3-12-15c-.8-1.42-2.38-2.21-4-2l-15,3c-1.33,0-2-1-2-3l1,1c.31.18.69.18,1,0,.67-2,2-3.67,4-5,5,0,10-5,15-6,.62-.36,1.38-.36,2,0l8,12,2-14c1-4,4-3,7-3l11,2c.55.28,1.22.05,1.5-.5s.05-1.22-.5-1.5c-3-2-6-4-7-8-.18-.31-.18-.69,0-1l4-14Z" fill="#ea7a09" stroke-width="0"/>
  <path d="M508.49,389.35v1c-1.33,6.67-4,12.67-8,18l-1-1,4-8,5-10Z" fill="#ff6343" stroke-width="0"/>
  <path d="M503.49,407.35l7-16v-2h1c2,2,2.33,4.33,1,7l-8,12h-1v-1Z" fill="#fefefe" stroke-width="0"/>
  <path d="M226.49,396.35l12,29h-6l-10-29h4ZM272.49,426.35l-22-29h104c.33-.08.67-.08,1,0l3,2,27,34h-16c-11,0-21-6-32-7h-65Z" fill="#1a516a" stroke-width="0"/>
  <path d="M395.49,432.35l-3-1-28-34c0-.55.45-1,1-1l3,1h1l27,34c0,.55-.45,1-1,1Z" fill="#fefefe" stroke-width="0"/>
  <path d="M226.49,396.35l24,1,22,29-34-1-12-29Z" fill="#118caa" stroke-width="0"/>
  <path d="M401.49,397.35c-2,4-5,13-3,18l3,12-23-30h23Z" fill="#19637d" stroke-width="0"/>
  <path d="M401.49,397.35h48v6l-7,14c0,.55-.45,1-1,1l-5-2v1l3,2c.71.4,1.11,1.19,1,2l-5,12h-29l-5-6-3-12c-2-5,1-14,3-18Z" fill="#16a5c0" stroke-width="0"/>
  <path d="M449.49,403.35l-2,30-1,1-11-1,5-12c.11-.81-.29-1.6-1-2l-3-2v-1l5,2c.55,0,1-.45,1-1l7-14Z" fill="#26c0db" stroke-width="0"/>
  <path d="M499.49,407.35l1,1c-1.33,2-2,4.33-2,7l1,1,8,1c.18.31.18.69,0,1-4,8-9,15.67-15,23v-1l-1,1c0-4-1.33-6.33-4-7h-6l18-27Z" fill="#bee7f4" stroke-width="0"/>
  <path d="M578.85,421.32l29.74,17.87c.47.28.63.9.34,1.37h0c-.28.47-.9.63-1.37.34l-29.74-17.87c-.47-.28-.63-.9-.34-1.37h0c.28-.47.9-.63,1.37-.34Z" fill="#ffc126" stroke-width="0"/>
  <path d="M101.49,419.35h5q.67,0,0,0l-4,2h-1l-1-1,1-1Z" fill="#b49c9f" stroke-width="0"/>
  <circle cx="631.09" cy="424.45" r="5.3" fill="#ffc126" stroke-width="0"/>
  <ellipse cx="108.66" cy="426.59" rx="4.2" ry="3.8" transform="translate(-321.46 520.29) rotate(-88)" fill="#fb9312" stroke-width="0"/>
  <path d="M523.49,430.35c-.67,6.67-5,12-13,16-2-3.33-2.33-6.33-1-9,2.67-6.67,7.33-9,14-7Z" fill="#98dceb" stroke-width="0"/>
  <path d="M523.49,430.35c9,9-3,23-13,16,8-4,12.33-9.33,13-16Z" fill="#69d2e7" stroke-width="0"/>
  <circle cx="71.89" cy="439.35" r="5" fill="#69d2e7" stroke-width="0"/>
  <path d="M260.49,442.35h6v5h-53l-13-2h-16v-2l1-1h75Z" fill="#bfc8d7" stroke-width="0"/>
  <path d="M260.49,442.35h72l13,2c0,1.33-.67,2.33-2,3h-77v-5h-6Z" fill="#8daac0" stroke-width="0"/>
  <path d="M345.49,444.35c10,6,17,6,29,6v1h-1v1l-1,5,1,2c-2,2-15-1-19,1l-2,1c-4,6-7,14-3,22l-4,1c-5-10-4-22,7-27v-1c-.67-2-2-3.67-4-5h-1l-1,2,1-3v-1l-4-2c1.33-.67,2-1.67,2-3Z" fill="#bfc8d7" stroke-width="0"/>
  <path d="M200.49,445.35c-5.33,1.33-10.67,1.67-16,1v-1h16Z" fill="#1a516a" stroke-width="0"/>
  <path d="M200.49,445.35l13,2c-2,0-3.33.67-4,2v1c2,.67,3,1.67,3,3l-6-3h-5c-1,0-15,1-18-1l1-3c5.33.67,10.67.33,16-1Z" fill="#19637d" stroke-width="0"/>
  <path d="M213.49,447.35h25l13,29-24,1c-.67-4-2-7.67-4-11h-1c-2-4.67-5.33-9-10-13,0-1.33-1-2.33-3-3v-1c.67-1.33,2-2,4-2Z" fill="#118caa" stroke-width="0"/>
  <path d="M266.49,447.35h21v1l-1,1c2.67,2.67,3.67,5.67,3,9-2,4-6,14-9,17l-1,1-18,1c-2-2-2.67-3.33-2-4v-1l-9-24h3v-1h13Z" fill="#19637d" stroke-width="0"/>
  <path d="M343.49,447.35l4,2v1l-1,3c-8,6-10,14-10,23h-27c-6.67-10-14-19.33-22-28v-1h56ZM238.49,447.35h15v1h-3l9,24v1c-.67.67,0,2,2,4l-10-1-13-29Z" fill="#1a516a" stroke-width="0"/>
  <path d="M287.49,448.35c8,8.67,15.33,18,22,28h-30l1-1c3-3,7-13,9-17,.67-3.33-.33-6.33-3-9l1-1Z" fill="#118caa" stroke-width="0"/>
  <path d="M182.49,449.35h1c3,2,17,1,18,1h5l-1,6v3h-16l-1,1-2,1-1-9c-.67-1.33-1.67-1.67-3-1v-2Z" fill="#bfc8d7" stroke-width="0"/>
  <path d="M374.49,450.35l66,1c-2,4-5,6-6,10l-9,14c0,.55.45,1,1,1h9-42c-1,0-2-1-1-2,0-.55-.45-1-1-1l-1,1c-1-11-6-20-16-23v-1Z" fill="#16a5c0" stroke-width="0"/>
  <path d="M206.49,450.35l6,3c4.67,4,8,8.33,10,13l1,10c0,3.33-.67,6.33-2,9-2,4.67-5.67,8.33-11,11-4.67,3.33-10,4.67-16,4h-3l-8-3c-5.33-3.33-9.33-7.33-12-12-2-4-3-7.67-3-11,0-4,.67-7.33,2-10,2.67-6,6.67-10.33,12-13,1.33-.67,2.33-.33,3,1l1,9v4c-4,7.33-3,13,3,17,9,4,19-1,18-11l-1-11h1c2,4,4,9,4,14-1,15-19,19-28,9-5-8-2-15,2-22v-3c0-.55-.45-1-1-1s-1,.45-1,1c-9,8-11,18-3,28,14,16,39,6,36-15-.67-6.67-4.33-11.67-11-15l1-6Z" fill="#0f1535" stroke-width="0"/>
  <path d="M440.49,451.35h5l8,8-2,2-9,15h-16c-.55,0-1-.45-1-1l9-14c1-4,4-6,6-10Z" fill="#26c0db" stroke-width="0"/>
  <path d="M483.49,452.35l-1,2-1-1-1-1c-4,0-9,3-11,6l-6,12-3-3-3-4-4-4-8-8h38v1Z" fill="#fefefe" stroke-width="0"/>
  <path d="M345.49,484.35c20,27,56-8,29-27h-2l1-5v-1c11,3,16,12,17,23,0,3.33-1,7-3,11-1.33,3.33-4,6.67-8,10-10.67,7.33-21.33,7.33-32,0-4-2.67-7-6-9-10-1.33-2.67-2-5.67-2-9,0-9,2-17,10-23l1-2h1c2,1.33,3.33,3,4,5v1c-11,5-12,17-7,27Z" fill="#0f1535" stroke-width="0"/>
  <circle cx="76.79" cy="453.65" r="1.4" fill="#e63b33" stroke-width="0"/>
  <path d="M483.49,452.35v5c0,3.33,1,6,3,8,9,14-11,26-20,14-1.33-1.33-2.33-4.33-3-9l6-12c2-3,7-6,11-6l1,1,1,1,1-2ZM474.49,467.35l-3,6c-.83.73-.91,1.99-.18,2.82.06.06.11.12.18.18h1c3.18,1.57,6.62,1.14,8-1v-1c.99-2.18-.27-5.11-3-7-.73-.83-1.99-.91-2.82-.18-.06.06-.12.11-.18.18Z" fill="#8daac0" stroke-width="0"/>
  <path d="M457.49,463.35l3,4c-1.33,8,.33,14,5,18,14,11,35-4,23-21l-5-7v-2c20,8,17,37-5,39-4,0-7.67-.67-11-2-11-6-14-18-10-29ZM205.49,456.35c6.67,3.33,10.33,8.33,11,15,3,21-22,31-36,16l3-4c9,10,27,6,28-9,0-5-2-10-4-14h-1l-1-1v-3ZM345.49,484.35l4-1c11,12,30,5,29-12,0-2-1.67-5.67-5-11q0-.67,0,0v-1l-1-2h2c27,19-9,54-29,27Z" fill="#5a668e" stroke-width="0"/>
  <path d="M183.49,483.35l-3,4c-8-10-6-21,3-29,0-.55.45-1,1-1s1,.45,1,1v3c-4,7-7,14-2,22Z" fill="#bfc8d7" stroke-width="0"/>
  <path d="M483.49,457.35l5,7c12,17-9,32-23,21-4.67-4-6.33-10-5-18l3,3c.67,4.67,1.67,7.67,3,9,9,12,29,0,20-14-2-2-3-4.67-3-8Z" fill="#0f1535" stroke-width="0"/>
  <path d="M205.49,459.35l1,1,1,11c1,10-9,15-18,11l3-3v-1c1.33,0,1.67-.67,1-2,4.67.67,7.33-.67,8-4,0-2-1.33-3.67-4-5l-9-1h-1l-1-1v-4l2-1,1-1h16ZM373.49,459.35v1c1,5,2,12,0,17-3.33,6-8.67,8-16,6,.67-2,2.33-4,5-6,4-.67,5.67-2.67,5-6-1-4-5-4-8-3-.67-.67-1.33-.33-2,1h-1c-2-1.33-2.67-3-2-5l-1-1,1-3c4-2,17,1,19-1Z" fill="#8daac0" stroke-width="0"/>
  <path d="M349.49,483.35c-4-8-1-16,3-22l2-1-1,3c-3,8-5,15,4,20,7.33,2,12.67,0,16-6,2-5,1-12,0-17q0-.67,0,0c3.33,5.33,5,9,5,11,1,17-18,24-29,12Z" fill="#0f1535" stroke-width="0"/>
  <path d="M451.49,461.35c-3.33,8.67-3.33,16.67,0,24h-64c2-4,3-7.67,3-11l1-1c.55,0,1,.45,1,1-1,2,0,2,1,2h49l9-15Z" fill="#fefefe" stroke-width="0"/>
  <path d="M353.49,463.35l1,1c-.67,2,0,3.67,2,5h1c.67-1.33,1.33-1.67,2-1-3.33,4.67-2.33,7.67,3,9-2.67,2-4.33,4-5,6-9-5-7-12-4-20ZM186.49,465.35l1,1h1l9,1c-2.67,0-4.33.67-5,2-2,3.33-1.67,5.67,1,7,.67.67.33,1.33-1,2v1l-3,3c-6-4-7-9.67-3-17Z" fill="#bfc8d7" stroke-width="0"/>
  <path d="M227.49,477.35l-4-1-1-10h1c2,3.33,3.33,7,4,11Z" fill="#26c0db" stroke-width="0"/>
  <path d="M474.49,467.35c.73-.83,1.99-.91,2.82-.18.06.06.12.11.18.18,2.73,1.89,3.99,4.82,3,7v1c-1.38,2.14-4.82,2.57-8,1h-1c-.83-.73-.91-1.99-.18-2.82.06-.06.11-.12.18-.18l3-6ZM197.49,467.35c2.67,1.33,4,3,4,5-.67,3.33-3.33,4.67-8,4-2.67-1.33-3-3.67-1-7,.67-1.33,2.33-2,5-2ZM362.49,477.35c-5.33-1.33-6.33-4.33-3-9,3-1,7-1,8,3,.67,3.33-1,5.33-5,6Z" fill="#0f1535" stroke-width="0"/>
  <path d="M223.49,476.35l4,1,24-1,10,1,18-1h57c0,3.33.67,6.33,2,9h-117c1.33-2.67,2-5.67,2-9Z" fill="#fefefe" stroke-width="0"/>
  <path d="M387.49,485.35h64c2.67,4,6.33,8,11,12l-83-2c4-3.33,6.67-6.67,8-10Z" fill="#26c0db" stroke-width="0"/>
  <path d="M171.49,485.35c2.67,4.67,6.67,8.67,12,12h-18l-1,1,27,2h3l9,1,15,1c43,1,86,2,129,1l94-1,28-1v-1h1c5.33,1.33,10.67,1,16-1l1,1h1l17-1c.55,0,1-.45,1-1s-.45-1-1-1h-14c4.67-3.33,8-7.33,10-12,23.33-.67,46.33-.33,69,1h1l-1,1h-15v1c1.33,0,2,1,2,3,0,.55-.45,1-1,1h-9v1l9,1-21,1-16,1-1,2-1,2v1l-1,1c0,.55-.45,1-1,1l-15,2h-2l-1,1c-5,0-10,1-14,3l-5,1c-.55,0-1,.45-1,1l-2,1h-17l-11-1-64,1c-.33-.08-.67-.08-1,0-1.33,1.33-1.67,2.67-1,4v3l-1,1h-187l-5-1-14-5c-3.33-1.33-8-2-14-2l-20-4-11-2-7-2-5-1v-1h-60v-1h90c4,0,4-5,1-5l-13-1h-59l1-1h1-1,1v-1l-2-2-1-1c-1.33,0-2-.67-2-2v-1l-3-1c34-2,67-1,101-1Z" fill="#69d2e7" stroke-width="0"/>
  <path d="M221.49,485.35h117c2,4,5,7.33,9,10l-68,1c-2.67-5.33-5.67-5.33-9,0h-60c5.33-2.67,9-6.33,11-11Z" fill="#26c0db" stroke-width="0"/>
  <path d="M570.49,486.35c13,0,69,3,75,16,9,23-168,36-183,37-83.33,5.33-166.67,6-250,2-55-3-109-8-163-18-12-2-41-7-48-16-13-17,63-21,69-21l3,1v1c0,1.33.67,2,2,2l1,1,2,2v1h-1l-1,1h59H32.49l-3,1h-1c-.67,2.67.33,4,3,4l28,1h-2v1h60v1l5,1,7,2,11,2,20,4c6,0,10.67.67,14,2l14,5,5,1h-19c-.33-.08-.67-.08-1,0-1.33.67-1.67,1.67-1,3-.11.81.29,1.6,1,2h6l284,1,3-1c.55,0,1-.45,1-1,1-3-1-4-4-4h-97,14l1-1v-3h69l1-1v-3c-.31-.18-.69-.18-1,0l-3-1,11,1h17l2-1c0-.55.45-1,1-1l5-1c4-2,9-3,14-3l1-1h2l15-2c.55,0,1-.45,1-1h0l1-1v-1l1-2c0,2,1,3,3,3h99l3-1,1-1v-3c-.31-.18-.69-.18-1,0l-87-1,20-1-9-1v-1h9c.55,0,1-.45,1-1h0c0-2-.67-3-2-3v-1h15l1-1h-1ZM475.49,513.35c.18-.31.18-.69,0-1l-18,1v2c-.18.31-.18.69,0,1h18c.18-.31.18-.69,0-1v-2Z" fill="#98dceb" stroke-width="0"/>
  <path d="M279.49,496.35c-1,5-8,7-9,0,3.33-5.33,6.33-5.33,9,0Z" fill="#fefefe" stroke-width="0"/>
  <path d="M379.49,495.35l83,2,8,3h-1v1l-28,1-94,1c-43,1-86,0-129-1l-15-1-9-1c6,.67,11.33-.67,16-4h60c1,7,8,5,9,0l68-1c10.67,7.33,21.33,7.33,32,0Z" fill="#16a5c0" stroke-width="0"/>
  <path d="M536.49,495.35l87,1c.31-.18.69-.18,1,0v3l-1,1h-3l-99,1c-2,0-3-1-3-3l1-2,16-1h1ZM135.49,495.35l13,1c3,0,3,5-1,5H59.49l-28-1c-2.67,0-3.67-1.33-3-4h1l3-1h103Z" fill="#fefefe" stroke-width="0"/>
  <path d="M486.49,499.35l5-2h14c.55,0,1,.45,1,1s-.45,1-1,1l-17,1h-1l-1-1ZM183.49,497.35l8,3-27-2,1-1h18Z" fill="#16a5c0" stroke-width="0"/>
  <path d="M447.49,511.35l3,1c.31-.18.69-.18,1,0v3l-1,1h-69c-.67-1.33-.33-2.67,1-4,.33-.08.67-.08,1,0l64-1Z" fill="#fefefe" stroke-width="0"/>
  <path d="M193.49,520.35h270c3,0,5,1,4,4,0,.55-.45,1-1,1h0l-3,1-284-1h-6c-.71-.4-1.11-1.19-1-2-.67-1.33-.33-2.33,1-3,.33-.08.67-.08,1,0h19Z" fill="#fefefe" stroke-width="0"/>
  <circle cx="161.19" cy="551.55" r="2" fill="#bee7f4" stroke-width="0"/>
</svg>